<svg height="512pt" viewBox="0 -40 512.0001 512" width="512pt" xmlns="http://www.w3.org/2000/svg"><path d="m248.59375 432.8125c-57.902344 0-113.105469-10.035156-155.445312-28.253906-49.921876-21.480469-81.957032-53.90625-92.636719-93.769532-1.070313-3.984374-.449219-8.234374 1.71875-11.75 2.164062-3.515624 5.679687-5.980468 9.722656-6.816406l76-15.769531c1.003906-.207031 2.023437-.3125 3.046875-.3125h329.996094c1.023437 0 2.046875.105469 3.046875.3125l76.003906 15.769531c4.039063.835938 7.554687 3.304688 9.722656 6.816406 2.164063 3.511719 2.785157 7.765626 1.714844 11.75-10.269531 38.328126-44.015625 70.257813-97.59375 92.34375-46.421875 19.140626-105.125 29.679688-165.296875 29.679688zm0 0" fill="#fdbf00"/><path d="m509.769531 299.039062c-2.164062-3.511718-5.679687-5.980468-9.722656-6.816406l-76-15.769531c-1.003906-.207031-2.023437-.3125-3.046875-.3125h-165v156.613281c57.566406-.828125 113.375-11.265625 157.894531-29.617187 53.578125-22.085938 87.324219-54.019531 97.59375-92.34375 1.070313-3.988281.445313-8.238281-1.71875-11.753907zm0 0" fill="#ff9100"/><path d="m138.800781 326.832031c-17.78125-4.765625-31.941406-10.746093-42.089843-17.777343-17.0625-11.820313-20.675782-25.15625-20.703126-34.265626 0-.015624 0-.027343 0-.042968l-.007812-44c-.003906-42.160156 15.023438-83.234375 42.3125-115.648438 26.941406-32 64.210938-53.785156 104.949219-61.347656.902343-.164062 64.570312-.164062 65.476562 0 40.734375 7.5625 78.003907 29.351562 104.945313 61.351562 27.285156 32.410157 42.3125 73.480469 42.3125 115.644532v43c.027344 9.058594-3.503906 22.417968-20.492188 34.34375-10.105468 7.089844-24.230468 13.15625-41.980468 18.03125-31.144532 8.546875-72.808594 14.460937-117.320313 14.460937-41.867187 0-86.660156-5.515625-117.402344-13.75zm0 0" fill="#ffcd00"/><path d="m393.683594 115.101562c-26.941406-32-64.210938-53.789062-104.945313-61.351562-.453125-.082031-16.59375-.125-32.738281-.125v286.957031h.203125c44.511719 0 86.175781-5.917969 117.320313-14.460937 17.75-4.875 31.875-10.9375 41.980468-18.03125 16.988282-11.925782 20.523438-25.285156 20.496094-34.34375v-43c0-42.164063-15.03125-83.234375-42.316406-115.644532zm0 0" fill="#fdbf00"/><path d="m256 0c-24.8125 0-45 20.1875-45 45v106.5c0 8.28125 6.71875 15 15 15h60c8.285156 0 15-6.71875 15-15v-106.5c0-24.8125-20.1875-45-45-45zm0 0" fill="#fff36c"/><path d="m256 276.140625c-21.433594 0-38.222656-13.027344-38.222656-29.65625s16.789062-29.652344 38.222656-29.652344 38.222656 13.023438 38.222656 29.652344-16.789062 29.65625-38.222656 29.65625zm0 0" fill="#ff1f3e"/><path d="m256 0v166.5h30c8.285156 0 15-6.71875 15-15v-106.5c0-24.8125-20.1875-45-45-45zm0 0" fill="#ffde46"/><path d="m256 216.832031v59.308594c21.433594 0 38.222656-13.027344 38.222656-29.65625s-16.789062-29.652344-38.222656-29.652344zm0 0" fill="#d10050"/></svg>